<svg width="1200" height="750" viewBox="0 0 1200 750" fill="none" xmlns="http://www.w3.org/2000/svg">
  <defs>
    <linearGradient id="g" x1="0" y1="0" x2="1200" y2="750" gradientUnits="userSpaceOnUse">
      <stop stop-color="#6D28D9"/>
      <stop offset="0.55" stop-color="#DB2777"/>
      <stop offset="1" stop-color="#F59E0B"/>
    </linearGradient>
    <filter id="shadow" x="100" y="80" width="1000" height="610" filterUnits="userSpaceOnUse">
      <feDropShadow dx="0" dy="42" stdDeviation="46" flood-color="#0F172A" flood-opacity="0.22"/>
    </filter>
  </defs>
  <rect width="1200" height="750" fill="url(#g)"/>
  <circle cx="132" cy="115" r="178" fill="white" opacity="0.13"/>
  <circle cx="1070" cy="650" r="235" fill="white" opacity="0.15"/>
  <path d="M0 590C178 510 324 490 485 540C645 590 776 702 1200 552V750H0V590Z" fill="white" opacity="0.11"/>
  <g filter="url(#shadow)">
    <rect x="150" y="125" width="900" height="500" rx="58" fill="white" opacity="0.85"/>
    <rect x="205" y="180" width="260" height="34" rx="17" fill="#0F172A" opacity="0.16"/>
    <rect x="205" y="240" width="790" height="166" rx="36" fill="#0F172A" opacity="0.08"/>
    <rect x="205" y="450" width="190" height="58" rx="29" fill="#6D28D9" opacity="0.88"/>
    <rect x="420" y="450" width="190" height="58" rx="29" fill="#F59E0B" opacity="0.88"/>
    <text x="600" y="327" text-anchor="middle" font-family="Inter, Arial, sans-serif" font-size="62" font-weight="900" fill="#0F172A">Duta Baca</text>
    <text x="600" y="383" text-anchor="middle" font-family="Inter, Arial, sans-serif" font-size="26" font-weight="800" fill="#475569">Literasi • Community</text>
  </g>
</svg>
